<svg xmlns="http://www.w3.org/2000/svg" width="160.091" height="36.847" viewBox="0 0 160.091 36.847">
  <path id="Tracé_1" data-name="Tracé 1" d="M208.039,176.725h.907l-7.809,15.067h-.767l-7.988-15.067h.887l7.514,14.091Zm3.53,15.067h.849V176.725h-.849Zm16.347-8.268a2.976,2.976,0,0,0,2.091-2.846q0-3.222-5.188-3.22h-7.651v6.688h7.218a8.853,8.853,0,0,0,3.53-.622m2.938-2.911q0,2.933-3.431,3.846,3.175.78,3.174,3.578v3.756h-.864V188.1q0-3.2-5.209-3.2h-7.355v6.889h-.849V176.725h8.44q6.094,0,6.094,3.888m2.289-3.155h6.918v14.334h.85V177.458h6.9v-.733H233.142Zm31.21,8.757q0,5-6.606,5t-6.6-5.089v-9.4h-.849v9.424q0,3.382,2.366,4.778a13.086,13.086,0,0,0,10.134,0,5,5,0,0,0,2.406-4.732v-9.47h-.848Zm11.576-9.492-8.281,15.068h.984l2.645-4.844.412-.732,4.693-8.469,4.515,8.469.395.732,2.583,4.844h.947l-8.007-15.068Zm11.337,0v15.068h12.243v-.731h-11.4V176.723ZM194.6,155.1h-2.243v19.5h16.991v-2.128H194.6Zm24.823,11.475,5.027-8.456,4.82,8.456,1.2,2.158,3.342,5.866h2.577l-11.05-19.5h-1.81L212.1,174.6h2.653l3.418-5.866ZM247,174.6l10.792-19.5h-2.525l-9.057,16.508L236.821,155.1h-2.5l11.02,19.5Zm11.3,0,3.418-5.866,1.249-2.158L268,158.121l4.822,8.456,1.2,2.158,3.343,5.866h2.573l-11.045-19.5h-1.811l-11.43,19.5Zm24.287-19.5v19.5h16.99v-2.126H284.833V155.1ZM175.91,169.26l-14.127,14.126L147.657,169.26l-4.2,4.2,18.327,18.327,18.327-18.327Zm4.2-5.992-4.2-4.2-14.127,14.126L143.689,155.1l-4.2,4.2,22.3,22.295Z" transform="translate(-139.488 -155.099)" fill="#3d93cc"/>
</svg>
